# xmcd
#
# Track frame offsets: 
#        150
#        15346
#        33385
#        46059
#        62549
#        81057
#        96649
#        115149
#        126728
#        148141
#        165905
#        186735
#        207135
#        235130
#        263376
#        279631
#        301640
#        325792
#
# Disc length: 4701 seconds
#
# Revision: 1
# Processed by: cddbd v1.5.2PL0 Copyright (c) Steve Scherf et al.
# Submitted via: ExactAudioCopyFreeDBPlugin 1.0
#
DISCID=f3125b12
DTITLE=Various Artist - 12 Bars to Heaven CD1
DYEAR=2002
DGENRE=Blues
TTITLE0=The fabulous Thunderbirds - tuff enuff
TTITLE1=The Robert Cray Band - the forecast
TTITLE2=Albert King - born under a bad sign
TTITLE3=Kid Ramos - welcome blues
TTITLE4=Rick Vito - going home
TTITLE5=Keb Mo - just like you
TTITLE6=Sunnyland Slim Blues Band - i feel so bad
TTITLE7=Buddy Guy - mary had a little lamb
TTITLE8=Lee Roy Parnell and Keb´Mo - i declare
TTITLE9=Tab Benoit - too many drivers at the wheel
TTITLE10=Mark Selby - i´m the lucky one
TTITLE11=Stevie Ray Vaughn and Double Trouble - come on part III
TTITLE12=John Mayall and Friends - so many roads
TTITLE13=Peter Green Splinter Group - real world
TTITLE14=The Blues Band - stepping out of main
TTITLE15=Julian Sas - i believe to my soul
TTITLE16=Eric Sardinas - get along rider
TTITLE17=Melvi Taylor and the Slack Band - even trolls love rock´n´roll
EXTD=
EXTT0=
EXTT1=
EXTT2=
EXTT3=
EXTT4=
EXTT5=
EXTT6=
EXTT7=
EXTT8=
EXTT9=
EXTT10=
EXTT11=
EXTT12=
EXTT13=
EXTT14=
EXTT15=
EXTT16=
EXTT17=
PLAYORDER=
